<svg xmlns="http://www.w3.org/2000/svg" viewBox="0 0 800 1000" role="img" aria-label="Lavender Soap">
  <rect width="800" height="1000" fill="#E4E2D3"/>
  <path d="M80 620 C 140 470, 300 430, 420 450 C 560 470, 700 520, 720 640 C 740 790, 600 900, 400 905 C 200 910, 40 800, 80 620z" fill="#d6d4c5"/>
         <g><ellipse cx="400" cy="720" rx="250" ry="34" fill="#000" opacity=".08"/>
  <rect x="170" y="420" width="460" height="290" rx="70" fill="#9e90b2"/>
  <rect x="170" y="390" width="460" height="290" rx="70" fill="#B4A6C8"/>
  <rect x="200" y="415" width="400" height="240" rx="52" fill="#beb0d2" opacity=".55"/>
  <circle cx="400" cy="535" r="62" fill="none" stroke="#988aac" stroke-width="3" opacity=".55"/>
   <path d="M400 569.1 C 400 535, 400 522.6, 400 500.9 M400 531.9 C 375.2 525.7, 372.1 507.1, 369 504 C 393.8 504, 400 516.4, 400 531.9 M400 544.3 C 421.7 535, 427.9 519.5, 431 516.4 C 409.3 515.16, 400 528.8, 400 544.3" fill="none" stroke="#988aac" stroke-width="3" stroke-linecap="round" opacity=".55"/></g>
  <text x="400" y="960" text-anchor="middle" font-family="Georgia, serif" font-size="26" fill="#6B6358" opacity=".8">Lavender Soap</text>
</svg>