<svg xmlns="http://www.w3.org/2000/svg" viewBox="0 0 800 1000" role="img" aria-label="Lip Plump Balm">
  <rect width="800" height="1000" fill="#E2E3D8"/>
  <path d="M80 620 C 140 470, 300 430, 420 450 C 560 470, 700 520, 720 640 C 740 790, 600 900, 400 905 C 200 910, 40 800, 80 620z" fill="#d4d5ca"/>
         <g><ellipse cx="400" cy="780" rx="120" ry="22" fill="#000" opacity=".08"/>
  <rect x="320" y="250" width="160" height="230" rx="26" fill="#b1726e"/>
  <rect x="320" y="250" width="160" height="40" rx="20" fill="#c1827e" opacity=".6"/>
  <rect x="312" y="470" width="176" height="300" rx="20" fill="#F4EFE6"/>
  <rect x="312" y="560" width="176" height="130" fill="#C98A86"/>
  <circle cx="400" cy="625" r="38" fill="none" stroke="#ad6e6a" stroke-width="3" opacity=".55"/>
   <path d="M400 645.9 C 400 625, 400 617.4, 400 604.1 M400 623.1 C 384.8 619.3, 382.9 607.9, 381 606 C 396.2 606, 400 613.6, 400 623.1 M400 630.7 C 413.3 625, 417.1 615.5, 419 613.6 C 405.7 612.84, 400 621.2, 400 630.7" fill="none" stroke="#ad6e6a" stroke-width="3" stroke-linecap="round" opacity=".55"/></g>
  <text x="400" y="960" text-anchor="middle" font-family="Georgia, serif" font-size="26" fill="#6B6358" opacity=".8">Lip Plump Balm</text>
</svg>